<?xml version="1.0" encoding="UTF-8"?>
<!DOCTYPE svg PUBLIC "-//W3C//DTD SVG 1.1//EN" "http://www.w3.org/Graphics/SVG/1.1/DTD/svg11.dtd">
<svg xmlns="http://www.w3.org/2000/svg" version="1.1" width="512px" height="512px" style="shape-rendering:geometricPrecision; text-rendering:geometricPrecision; image-rendering:optimizeQuality; fill-rule:evenodd; clip-rule:evenodd" xmlns:xlink="http://www.w3.org/1999/xlink">
<g><path style="opacity:0.97" fill="#2b2b2b" d="M 231.5,75.5 C 236.881,75.5735 241.881,76.9068 246.5,79.5C 250.684,77.1617 255.184,75.8283 260,75.5C 277.768,77.2129 291.435,85.5462 301,100.5C 318.647,171.088 335.98,241.754 353,312.5C 354.961,315.135 357.461,316.969 360.5,318C 390.18,321.585 419.846,325.252 449.5,329C 453.413,331.412 455.413,334.912 455.5,339.5C 451.672,366.787 448.172,394.12 445,421.5C 443.345,431.162 437.678,435.495 428,434.5C 410.686,433.334 393.352,432.668 376,432.5C 350.817,433.335 325.65,434.168 300.5,435C 277.481,431.581 259.314,420.414 246,401.5C 233.221,420.644 215.388,431.811 192.5,435C 167.348,434.223 142.181,433.39 117,432.5C 99.3156,432.691 81.6489,433.358 64,434.5C 55.4327,435.549 50.0994,431.882 48,423.5C 44.7456,395.798 41.2456,368.131 37.5,340.5C 38.0066,335.506 40.3399,331.673 44.5,329C 74.1443,325.188 103.811,321.521 133.5,318C 135.587,317.208 137.421,316.041 139,314.5C 157.132,243.638 174.799,172.638 192,101.5C 201.217,86.6534 214.383,77.9867 231.5,75.5 Z M 230.5,98.5 C 232.167,98.5 233.833,98.5 235.5,98.5C 237.408,192.162 237.241,285.828 235,379.5C 225.428,398.047 210.261,408.88 189.5,412C 167.358,411.143 145.191,410.643 123,410.5C 103.795,410.389 84.6282,411.056 65.5,412.5C 63.8334,392.5 62.1667,372.5 60.5,352.5C 87.8597,348.107 115.193,343.607 142.5,339C 147.588,335.917 152.088,332.083 156,327.5C 173.643,257.595 190.976,187.595 208,117.5C 209.343,113.49 211.509,109.99 214.5,107C 219.483,103.344 224.816,100.511 230.5,98.5 Z M 257.5,98.5 C 269.375,99.8917 278.542,105.558 285,115.5C 302.2,186.633 319.867,257.633 338,328.5C 341.97,333.475 346.803,337.309 352.5,340C 379.191,344.115 405.858,348.448 432.5,353C 433.081,353.893 433.415,354.893 433.5,356C 431.337,374.792 429.671,393.625 428.5,412.5C 409.03,411.14 389.53,410.473 370,410.5C 347.488,411.002 324.988,411.502 302.5,412C 264.247,402.718 249.413,378.552 258,339.5C 256.007,262.49 256.173,185.49 258.5,108.5C 258.355,105.133 258.022,101.799 257.5,98.5 Z"/></g>
</svg>